# xmcd
#
# Track frame offsets:
#	150
#	14746
#	34049
#	47157
#	66373
#	80149
#	94283
#	106207
#	118536
#	134412
#	145826
#	162338
#
# Disc length: 2329 seconds
# Revision: 0
# Processed by: cddbd v1.5.2PL0 Copyright (c) Steve Scherf et al.
# Submitted via: dBpowerAMP V12.0
#
DISCID=ac09170c
DTITLE=Volume Five - Drifter
DYEAR=2016
DGENRE=Country
TTITLE0=I Am A Drifter
TTITLE1=Lonely Wind
TTITLE2=95 Years
TTITLE3=When I Go Away
TTITLE4=Ranching Man
TTITLE5=Because of You
TTITLE6=Lucky Seven
TTITLE7=Tall Pines
TTITLE8=Scarecrow
TTITLE9=Alaskan Gold
TTITLE10=Molly Dear
TTITLE11=With My Gun
EXTD=
EXTT0=
EXTT1=
EXTT2=
EXTT3=
EXTT4=
EXTT5=
EXTT6=
EXTT7=
EXTT8=
EXTT9=
EXTT10=
EXTT11=
PLAYORDER=
